<svg width="359" height="75" viewBox="0 0 359 75" fill="none" xmlns="http://www.w3.org/2000/svg">
<mask id="path-1-outside-1" maskUnits="userSpaceOnUse" x="0.446426" y="-0.169769" width="360" height="75" fill="black">
<rect fill="white" x="0.446426" y="-0.169769" width="360" height="75"/>
<path d="M33.367 12.8795V17.1332H16.6626V36.0109H30.1379V40.6062H16.3832V56.8137H11.4464V12.8795H33.367Z"/>
<path d="M52.2758 57.3726L46.9975 42.3139C45.9625 42.4381 44.9586 42.5002 43.9857 42.5002C43.7373 42.5002 43.4889 42.5002 43.2405 42.5002C42.9922 42.5002 42.7334 42.4795 42.4643 42.4381C42.3401 44.9013 42.2366 47.3541 42.1538 49.7967C42.0917 52.2185 42.0296 54.661 41.9675 57.1242H37.3102C37.4344 52.8188 37.5379 48.534 37.6207 44.2699C37.7242 39.9852 37.7759 35.6694 37.7759 31.3225C37.7759 28.1762 37.7449 25.061 37.6828 21.9768C37.6207 18.8719 37.5379 15.7463 37.4344 12.6C38.428 12.2067 39.4733 11.8962 40.5703 11.6686C41.6674 11.4202 42.7231 11.2339 43.7373 11.1097C44.7723 10.9855 45.7245 10.913 46.5938 10.8923C47.4632 10.8509 48.167 10.8302 48.7052 10.8302C50.6716 10.8302 52.5345 11.0993 54.294 11.6375C56.0741 12.1757 57.6266 13.0658 58.9513 14.3077C60.2761 15.529 61.3214 17.1332 62.0873 19.1203C62.8738 21.0867 63.2671 23.4982 63.2671 26.3547C63.1636 28.259 62.76 30.0081 62.0562 31.602C61.3524 33.1751 60.4313 34.593 59.2929 35.8557C58.1544 37.0976 56.8607 38.174 55.4117 39.0848C53.9835 39.9955 52.4931 40.7304 50.9407 41.2892C52.0791 43.9181 53.3108 46.5158 54.6355 49.0825C55.9603 51.6492 57.3782 54.2263 58.8892 56.8137L52.2758 57.3726ZM44.0478 15.2081C43.7373 19.1824 43.4682 23.136 43.2405 27.0688C43.0129 31.0017 42.7955 34.9346 42.5885 38.8674H42.6506C44.9275 38.8674 46.8526 38.5569 48.4257 37.936C50.0196 37.315 51.334 36.5388 52.3689 35.6073C53.4246 34.6758 54.2422 33.6719 54.8218 32.5955C55.4014 31.4985 55.8257 30.4739 56.0948 29.5217C56.3846 28.5695 56.5605 27.7726 56.6226 27.1309C56.6847 26.4892 56.7158 26.1477 56.7158 26.1063C56.7158 25.8786 56.6951 25.4439 56.6537 24.8023C56.6123 24.1606 56.4984 23.4258 56.3121 22.5978C56.1259 21.7491 55.8361 20.8694 55.4428 19.9586C55.0702 19.0479 54.5424 18.2199 53.8593 17.4747C53.1762 16.7088 52.3172 16.0775 51.2822 15.5807C50.2473 15.0839 48.9846 14.8355 47.4943 14.8355C46.4593 14.8355 45.3105 14.9597 44.0478 15.2081Z"/>
<path d="M90.2176 12.8174V17.0711H73.1717V36.0109H86.647V40.6062H72.9854V51.8459H89.5035V56.7516H67.7071V12.8174H90.2176Z"/>
<path d="M112.945 57.4347L111.424 49.1136C110.43 49.0722 109.447 49.0411 108.474 49.0204C107.502 48.9997 106.518 48.9894 105.525 48.9894C104.469 48.9894 103.403 48.9997 102.327 49.0204C101.25 49.0411 100.174 49.0722 99.0976 49.1136C98.8285 50.5211 98.5698 51.908 98.3214 53.2741C98.0937 54.6403 97.866 56.0064 97.6383 57.3726L91.8321 57.4347C92.7429 53.7709 93.5916 50.0761 94.3782 46.3502C95.1854 42.6244 95.9617 38.8881 96.7068 35.1416C97.452 31.395 98.1868 27.6484 98.9113 23.9018C99.6358 20.1553 100.371 16.4397 101.116 12.7553L109.126 12.6C110.617 20.0725 112.18 27.576 113.815 35.1105C115.471 42.645 117.261 50.0864 119.186 57.4347H112.945ZM105.338 18.282C104.345 22.6495 103.403 27.0378 102.513 31.4467C101.623 35.835 100.754 40.2439 99.9049 44.6736C100.816 44.715 101.716 44.7253 102.606 44.7046C103.496 44.6839 104.407 44.6736 105.338 44.6736C106.229 44.6736 107.098 44.6839 107.947 44.7046C108.795 44.7253 109.654 44.715 110.524 44.6736C109.696 40.2232 108.857 35.8039 108.009 31.4157C107.16 27.0274 106.27 22.6495 105.338 18.282Z"/>
<path d="M130.333 12.6932C129.919 17.1228 129.557 21.5214 129.246 25.889C128.936 30.2565 128.667 34.6448 128.439 39.0537C131.192 35.2037 133.572 31.0224 135.58 26.5099C137.609 21.9975 139.275 17.2781 140.579 12.3516L147.844 12.8795C146.354 16.5432 144.75 20.0725 143.032 23.4672C141.314 26.8618 139.399 30.1737 137.288 33.4028L146.571 57.2484H139.554L134.618 37.2218C133.583 38.6501 132.537 40.0473 131.482 41.4134C130.426 42.7796 129.329 44.1354 128.19 45.4809C128.087 47.4887 128.015 49.5069 127.973 51.5354C127.932 53.5432 127.89 55.5511 127.849 57.5589H122.571C122.612 54.868 122.643 52.1874 122.664 49.5172C122.705 46.847 122.726 44.1664 122.726 41.4755C122.726 36.6526 122.684 31.8711 122.602 27.1309C122.54 22.3701 122.446 17.5782 122.322 12.7553L130.333 12.6932Z"/>
<path d="M185.507 56.6895L165.884 57.3726C165.925 54.8887 165.956 52.4048 165.977 49.9209C165.998 47.4369 166.008 44.9427 166.008 42.4381C166.008 37.4081 165.956 32.4196 165.853 27.4725C165.77 22.5046 165.646 17.5058 165.48 12.4758L172.932 12.1653C172.704 15.9947 172.497 19.6067 172.311 23.0014C172.145 26.3961 171.99 29.6976 171.845 32.906C171.721 36.0937 171.607 39.2504 171.504 42.376C171.4 45.4809 171.307 48.6582 171.224 51.908C172.301 51.9701 173.387 52.0115 174.484 52.0322C175.581 52.0322 176.679 52.0322 177.776 52.0322C180.322 52.0322 182.899 51.9701 185.507 51.8459V56.6895Z"/>
<path d="M201.155 56.5032H187.556L187.618 51.6596C188.281 51.701 188.943 51.732 189.605 51.7527C190.268 51.7734 190.92 51.7838 191.561 51.7838C191.665 47.6232 191.737 43.4627 191.779 39.3021C191.841 35.1416 191.872 30.9499 191.872 26.7273C191.872 25.0713 191.872 23.4154 191.872 21.7595C191.872 20.1035 191.851 18.4372 191.81 16.7606L187.867 17.3195L187.556 11.7307C188.798 11.772 190.04 11.7927 191.282 11.7927C192.524 11.7927 193.766 11.7927 195.008 11.7927C196.229 11.7927 197.44 11.7927 198.641 11.7927C199.862 11.7927 201.083 11.772 202.304 11.7307L202.242 15.7981C201.538 15.8395 200.835 15.8912 200.131 15.9533C199.448 15.9947 198.754 16.0465 198.051 16.1086C197.595 22.0906 197.181 28.0417 196.809 33.9617C196.457 39.861 196.146 45.8017 195.877 51.7838C196.788 51.7838 197.668 51.7631 198.516 51.7217C199.386 51.6596 200.265 51.5768 201.155 51.4733V56.5032Z"/>
<path d="M214.227 12.6932C213.813 17.1228 213.451 21.5214 213.14 25.889C212.83 30.2565 212.561 34.6448 212.333 39.0537C215.086 35.2037 217.467 31.0224 219.474 26.5099C221.503 21.9975 223.169 17.2781 224.473 12.3516L231.739 12.8795C230.248 16.5432 228.644 20.0725 226.926 23.4672C225.208 26.8618 223.293 30.1737 221.182 33.4028L230.466 57.2484H223.449L218.512 37.2218C217.477 38.6501 216.432 40.0473 215.376 41.4134C214.32 42.7796 213.223 44.1354 212.085 45.4809C211.981 47.4887 211.909 49.5069 211.867 51.5354C211.826 53.5432 211.785 55.5511 211.743 57.5589H206.465C206.506 54.868 206.537 52.1874 206.558 49.5172C206.599 46.847 206.62 44.1664 206.62 41.4755C206.62 36.6526 206.579 31.8711 206.496 27.1309C206.434 22.3701 206.341 17.5782 206.216 12.7553L214.227 12.6932Z"/>
<path d="M257.634 12.8174V17.0711H240.588V36.0109H254.063V40.6062H240.401V51.8459H256.919V56.7516H235.123V12.8174H257.634Z"/>
<path d="M319.856 56.5653H317.185L314.391 22.6599L309.237 53.4915H303.307L298.804 23.374L294.861 56.2238L289.831 55.9133L293.837 11.9169H302.561L306.691 43.649L311.193 11.7927H319.856V56.5653Z"/>
<path d="M349.166 12.8174V17.0711H332.12V36.0109H345.595V40.6062H331.934V51.8459H348.452V56.7516H326.655V12.8174H349.166Z"/>
</mask>
<path d="M33.367 12.8795V17.1332H16.6626V36.0109H30.1379V40.6062H16.3832V56.8137H11.4464V12.8795H33.367Z" fill="white"/>
<path d="M52.2758 57.3726L46.9975 42.3139C45.9625 42.4381 44.9586 42.5002 43.9857 42.5002C43.7373 42.5002 43.4889 42.5002 43.2405 42.5002C42.9922 42.5002 42.7334 42.4795 42.4643 42.4381C42.3401 44.9013 42.2366 47.3541 42.1538 49.7967C42.0917 52.2185 42.0296 54.661 41.9675 57.1242H37.3102C37.4344 52.8188 37.5379 48.534 37.6207 44.2699C37.7242 39.9852 37.7759 35.6694 37.7759 31.3225C37.7759 28.1762 37.7449 25.061 37.6828 21.9768C37.6207 18.8719 37.5379 15.7463 37.4344 12.6C38.428 12.2067 39.4733 11.8962 40.5703 11.6686C41.6674 11.4202 42.7231 11.2339 43.7373 11.1097C44.7723 10.9855 45.7245 10.913 46.5938 10.8923C47.4632 10.8509 48.167 10.8302 48.7052 10.8302C50.6716 10.8302 52.5345 11.0993 54.294 11.6375C56.0741 12.1757 57.6266 13.0658 58.9513 14.3077C60.2761 15.529 61.3214 17.1332 62.0873 19.1203C62.8738 21.0867 63.2671 23.4982 63.2671 26.3547C63.1636 28.259 62.76 30.0081 62.0562 31.602C61.3524 33.1751 60.4313 34.593 59.2929 35.8557C58.1544 37.0976 56.8607 38.174 55.4117 39.0848C53.9835 39.9955 52.4931 40.7304 50.9407 41.2892C52.0791 43.9181 53.3108 46.5158 54.6355 49.0825C55.9603 51.6492 57.3782 54.2263 58.8892 56.8137L52.2758 57.3726ZM44.0478 15.2081C43.7373 19.1824 43.4682 23.136 43.2405 27.0688C43.0129 31.0017 42.7955 34.9346 42.5885 38.8674H42.6506C44.9275 38.8674 46.8526 38.5569 48.4257 37.936C50.0196 37.315 51.334 36.5388 52.3689 35.6073C53.4246 34.6758 54.2422 33.6719 54.8218 32.5955C55.4014 31.4985 55.8257 30.4739 56.0948 29.5217C56.3846 28.5695 56.5605 27.7726 56.6226 27.1309C56.6847 26.4892 56.7158 26.1477 56.7158 26.1063C56.7158 25.8786 56.6951 25.4439 56.6537 24.8023C56.6123 24.1606 56.4984 23.4258 56.3121 22.5978C56.1259 21.7491 55.8361 20.8694 55.4428 19.9586C55.0702 19.0479 54.5424 18.2199 53.8593 17.4747C53.1762 16.7088 52.3172 16.0775 51.2822 15.5807C50.2473 15.0839 48.9846 14.8355 47.4943 14.8355C46.4593 14.8355 45.3105 14.9597 44.0478 15.2081Z" fill="white"/>
<path d="M90.2176 12.8174V17.0711H73.1717V36.0109H86.647V40.6062H72.9854V51.8459H89.5035V56.7516H67.7071V12.8174H90.2176Z" fill="white"/>
<path d="M112.945 57.4347L111.424 49.1136C110.43 49.0722 109.447 49.0411 108.474 49.0204C107.502 48.9997 106.518 48.9894 105.525 48.9894C104.469 48.9894 103.403 48.9997 102.327 49.0204C101.25 49.0411 100.174 49.0722 99.0976 49.1136C98.8285 50.5211 98.5698 51.908 98.3214 53.2741C98.0937 54.6403 97.866 56.0064 97.6383 57.3726L91.8321 57.4347C92.7429 53.7709 93.5916 50.0761 94.3782 46.3502C95.1854 42.6244 95.9617 38.8881 96.7068 35.1416C97.452 31.395 98.1868 27.6484 98.9113 23.9018C99.6358 20.1553 100.371 16.4397 101.116 12.7553L109.126 12.6C110.617 20.0725 112.18 27.576 113.815 35.1105C115.471 42.645 117.261 50.0864 119.186 57.4347H112.945ZM105.338 18.282C104.345 22.6495 103.403 27.0378 102.513 31.4467C101.623 35.835 100.754 40.2439 99.9049 44.6736C100.816 44.715 101.716 44.7253 102.606 44.7046C103.496 44.6839 104.407 44.6736 105.338 44.6736C106.229 44.6736 107.098 44.6839 107.947 44.7046C108.795 44.7253 109.654 44.715 110.524 44.6736C109.696 40.2232 108.857 35.8039 108.009 31.4157C107.16 27.0274 106.27 22.6495 105.338 18.282Z" fill="white"/>
<path d="M130.333 12.6932C129.919 17.1228 129.557 21.5214 129.246 25.889C128.936 30.2565 128.667 34.6448 128.439 39.0537C131.192 35.2037 133.572 31.0224 135.58 26.5099C137.609 21.9975 139.275 17.2781 140.579 12.3516L147.844 12.8795C146.354 16.5432 144.75 20.0725 143.032 23.4672C141.314 26.8618 139.399 30.1737 137.288 33.4028L146.571 57.2484H139.554L134.618 37.2218C133.583 38.6501 132.537 40.0473 131.482 41.4134C130.426 42.7796 129.329 44.1354 128.19 45.4809C128.087 47.4887 128.015 49.5069 127.973 51.5354C127.932 53.5432 127.89 55.5511 127.849 57.5589H122.571C122.612 54.868 122.643 52.1874 122.664 49.5172C122.705 46.847 122.726 44.1664 122.726 41.4755C122.726 36.6526 122.684 31.8711 122.602 27.1309C122.54 22.3701 122.446 17.5782 122.322 12.7553L130.333 12.6932Z" fill="white"/>
<path d="M185.507 56.6895L165.884 57.3726C165.925 54.8887 165.956 52.4048 165.977 49.9209C165.998 47.4369 166.008 44.9427 166.008 42.4381C166.008 37.4081 165.956 32.4196 165.853 27.4725C165.77 22.5046 165.646 17.5058 165.48 12.4758L172.932 12.1653C172.704 15.9947 172.497 19.6067 172.311 23.0014C172.145 26.3961 171.99 29.6976 171.845 32.906C171.721 36.0937 171.607 39.2504 171.504 42.376C171.4 45.4809 171.307 48.6582 171.224 51.908C172.301 51.9701 173.387 52.0115 174.484 52.0322C175.581 52.0322 176.679 52.0322 177.776 52.0322C180.322 52.0322 182.899 51.9701 185.507 51.8459V56.6895Z" fill="white"/>
<path d="M201.155 56.5032H187.556L187.618 51.6596C188.281 51.701 188.943 51.732 189.605 51.7527C190.268 51.7734 190.92 51.7838 191.561 51.7838C191.665 47.6232 191.737 43.4627 191.779 39.3021C191.841 35.1416 191.872 30.9499 191.872 26.7273C191.872 25.0713 191.872 23.4154 191.872 21.7595C191.872 20.1035 191.851 18.4372 191.81 16.7606L187.867 17.3195L187.556 11.7307C188.798 11.772 190.04 11.7927 191.282 11.7927C192.524 11.7927 193.766 11.7927 195.008 11.7927C196.229 11.7927 197.44 11.7927 198.641 11.7927C199.862 11.7927 201.083 11.772 202.304 11.7307L202.242 15.7981C201.538 15.8395 200.835 15.8912 200.131 15.9533C199.448 15.9947 198.754 16.0465 198.051 16.1086C197.595 22.0906 197.181 28.0417 196.809 33.9617C196.457 39.861 196.146 45.8017 195.877 51.7838C196.788 51.7838 197.668 51.7631 198.516 51.7217C199.386 51.6596 200.265 51.5768 201.155 51.4733V56.5032Z" fill="white"/>
<path d="M214.227 12.6932C213.813 17.1228 213.451 21.5214 213.14 25.889C212.83 30.2565 212.561 34.6448 212.333 39.0537C215.086 35.2037 217.467 31.0224 219.474 26.5099C221.503 21.9975 223.169 17.2781 224.473 12.3516L231.739 12.8795C230.248 16.5432 228.644 20.0725 226.926 23.4672C225.208 26.8618 223.293 30.1737 221.182 33.4028L230.466 57.2484H223.449L218.512 37.2218C217.477 38.6501 216.432 40.0473 215.376 41.4134C214.32 42.7796 213.223 44.1354 212.085 45.4809C211.981 47.4887 211.909 49.5069 211.867 51.5354C211.826 53.5432 211.785 55.5511 211.743 57.5589H206.465C206.506 54.868 206.537 52.1874 206.558 49.5172C206.599 46.847 206.62 44.1664 206.62 41.4755C206.62 36.6526 206.579 31.8711 206.496 27.1309C206.434 22.3701 206.341 17.5782 206.216 12.7553L214.227 12.6932Z" fill="white"/>
<path d="M257.634 12.8174V17.0711H240.588V36.0109H254.063V40.6062H240.401V51.8459H256.919V56.7516H235.123V12.8174H257.634Z" fill="white"/>
<path d="M319.856 56.5653H317.185L314.391 22.6599L309.237 53.4915H303.307L298.804 23.374L294.861 56.2238L289.831 55.9133L293.837 11.9169H302.561L306.691 43.649L311.193 11.7927H319.856V56.5653Z" fill="white"/>
<path d="M349.166 12.8174V17.0711H332.12V36.0109H345.595V40.6062H331.934V51.8459H348.452V56.7516H326.655V12.8174H349.166Z" fill="white"/>
<path d="M33.367 12.8795V17.1332H16.6626V36.0109H30.1379V40.6062H16.3832V56.8137H11.4464V12.8795H33.367Z" stroke="#A62D62" stroke-width="21.1961" mask="url(#path-1-outside-1)"/>
<path d="M52.2758 57.3726L46.9975 42.3139C45.9625 42.4381 44.9586 42.5002 43.9857 42.5002C43.7373 42.5002 43.4889 42.5002 43.2405 42.5002C42.9922 42.5002 42.7334 42.4795 42.4643 42.4381C42.3401 44.9013 42.2366 47.3541 42.1538 49.7967C42.0917 52.2185 42.0296 54.661 41.9675 57.1242H37.3102C37.4344 52.8188 37.5379 48.534 37.6207 44.2699C37.7242 39.9852 37.7759 35.6694 37.7759 31.3225C37.7759 28.1762 37.7449 25.061 37.6828 21.9768C37.6207 18.8719 37.5379 15.7463 37.4344 12.6C38.428 12.2067 39.4733 11.8962 40.5703 11.6686C41.6674 11.4202 42.7231 11.2339 43.7373 11.1097C44.7723 10.9855 45.7245 10.913 46.5938 10.8923C47.4632 10.8509 48.167 10.8302 48.7052 10.8302C50.6716 10.8302 52.5345 11.0993 54.294 11.6375C56.0741 12.1757 57.6266 13.0658 58.9513 14.3077C60.2761 15.529 61.3214 17.1332 62.0873 19.1203C62.8738 21.0867 63.2671 23.4982 63.2671 26.3547C63.1636 28.259 62.76 30.0081 62.0562 31.602C61.3524 33.1751 60.4313 34.593 59.2929 35.8557C58.1544 37.0976 56.8607 38.174 55.4117 39.0848C53.9835 39.9955 52.4931 40.7304 50.9407 41.2892C52.0791 43.9181 53.3108 46.5158 54.6355 49.0825C55.9603 51.6492 57.3782 54.2263 58.8892 56.8137L52.2758 57.3726ZM44.0478 15.2081C43.7373 19.1824 43.4682 23.136 43.2405 27.0688C43.0129 31.0017 42.7955 34.9346 42.5885 38.8674H42.6506C44.9275 38.8674 46.8526 38.5569 48.4257 37.936C50.0196 37.315 51.334 36.5388 52.3689 35.6073C53.4246 34.6758 54.2422 33.6719 54.8218 32.5955C55.4014 31.4985 55.8257 30.4739 56.0948 29.5217C56.3846 28.5695 56.5605 27.7726 56.6226 27.1309C56.6847 26.4892 56.7158 26.1477 56.7158 26.1063C56.7158 25.8786 56.6951 25.4439 56.6537 24.8023C56.6123 24.1606 56.4984 23.4258 56.3121 22.5978C56.1259 21.7491 55.8361 20.8694 55.4428 19.9586C55.0702 19.0479 54.5424 18.2199 53.8593 17.4747C53.1762 16.7088 52.3172 16.0775 51.2822 15.5807C50.2473 15.0839 48.9846 14.8355 47.4943 14.8355C46.4593 14.8355 45.3105 14.9597 44.0478 15.2081Z" stroke="#A62D62" stroke-width="21.1961" mask="url(#path-1-outside-1)"/>
<path d="M90.2176 12.8174V17.0711H73.1717V36.0109H86.647V40.6062H72.9854V51.8459H89.5035V56.7516H67.7071V12.8174H90.2176Z" stroke="#A62D62" stroke-width="21.1961" mask="url(#path-1-outside-1)"/>
<path d="M112.945 57.4347L111.424 49.1136C110.43 49.0722 109.447 49.0411 108.474 49.0204C107.502 48.9997 106.518 48.9894 105.525 48.9894C104.469 48.9894 103.403 48.9997 102.327 49.0204C101.25 49.0411 100.174 49.0722 99.0976 49.1136C98.8285 50.5211 98.5698 51.908 98.3214 53.2741C98.0937 54.6403 97.866 56.0064 97.6383 57.3726L91.8321 57.4347C92.7429 53.7709 93.5916 50.0761 94.3782 46.3502C95.1854 42.6244 95.9617 38.8881 96.7068 35.1416C97.452 31.395 98.1868 27.6484 98.9113 23.9018C99.6358 20.1553 100.371 16.4397 101.116 12.7553L109.126 12.6C110.617 20.0725 112.18 27.576 113.815 35.1105C115.471 42.645 117.261 50.0864 119.186 57.4347H112.945ZM105.338 18.282C104.345 22.6495 103.403 27.0378 102.513 31.4467C101.623 35.835 100.754 40.2439 99.9049 44.6736C100.816 44.715 101.716 44.7253 102.606 44.7046C103.496 44.6839 104.407 44.6736 105.338 44.6736C106.229 44.6736 107.098 44.6839 107.947 44.7046C108.795 44.7253 109.654 44.715 110.524 44.6736C109.696 40.2232 108.857 35.8039 108.009 31.4157C107.16 27.0274 106.27 22.6495 105.338 18.282Z" stroke="#A62D62" stroke-width="21.1961" mask="url(#path-1-outside-1)"/>
<path d="M130.333 12.6932C129.919 17.1228 129.557 21.5214 129.246 25.889C128.936 30.2565 128.667 34.6448 128.439 39.0537C131.192 35.2037 133.572 31.0224 135.58 26.5099C137.609 21.9975 139.275 17.2781 140.579 12.3516L147.844 12.8795C146.354 16.5432 144.75 20.0725 143.032 23.4672C141.314 26.8618 139.399 30.1737 137.288 33.4028L146.571 57.2484H139.554L134.618 37.2218C133.583 38.6501 132.537 40.0473 131.482 41.4134C130.426 42.7796 129.329 44.1354 128.19 45.4809C128.087 47.4887 128.015 49.5069 127.973 51.5354C127.932 53.5432 127.89 55.5511 127.849 57.5589H122.571C122.612 54.868 122.643 52.1874 122.664 49.5172C122.705 46.847 122.726 44.1664 122.726 41.4755C122.726 36.6526 122.684 31.8711 122.602 27.1309C122.54 22.3701 122.446 17.5782 122.322 12.7553L130.333 12.6932Z" stroke="#A62D62" stroke-width="21.1961" mask="url(#path-1-outside-1)"/>
<path d="M185.507 56.6895L165.884 57.3726C165.925 54.8887 165.956 52.4048 165.977 49.9209C165.998 47.4369 166.008 44.9427 166.008 42.4381C166.008 37.4081 165.956 32.4196 165.853 27.4725C165.77 22.5046 165.646 17.5058 165.48 12.4758L172.932 12.1653C172.704 15.9947 172.497 19.6067 172.311 23.0014C172.145 26.3961 171.99 29.6976 171.845 32.906C171.721 36.0937 171.607 39.2504 171.504 42.376C171.4 45.4809 171.307 48.6582 171.224 51.908C172.301 51.9701 173.387 52.0115 174.484 52.0322C175.581 52.0322 176.679 52.0322 177.776 52.0322C180.322 52.0322 182.899 51.9701 185.507 51.8459V56.6895Z" stroke="#A62D62" stroke-width="21.1961" mask="url(#path-1-outside-1)"/>
<path d="M201.155 56.5032H187.556L187.618 51.6596C188.281 51.701 188.943 51.732 189.605 51.7527C190.268 51.7734 190.92 51.7838 191.561 51.7838C191.665 47.6232 191.737 43.4627 191.779 39.3021C191.841 35.1416 191.872 30.9499 191.872 26.7273C191.872 25.0713 191.872 23.4154 191.872 21.7595C191.872 20.1035 191.851 18.4372 191.81 16.7606L187.867 17.3195L187.556 11.7307C188.798 11.772 190.04 11.7927 191.282 11.7927C192.524 11.7927 193.766 11.7927 195.008 11.7927C196.229 11.7927 197.44 11.7927 198.641 11.7927C199.862 11.7927 201.083 11.772 202.304 11.7307L202.242 15.7981C201.538 15.8395 200.835 15.8912 200.131 15.9533C199.448 15.9947 198.754 16.0465 198.051 16.1086C197.595 22.0906 197.181 28.0417 196.809 33.9617C196.457 39.861 196.146 45.8017 195.877 51.7838C196.788 51.7838 197.668 51.7631 198.516 51.7217C199.386 51.6596 200.265 51.5768 201.155 51.4733V56.5032Z" stroke="#A62D62" stroke-width="21.1961" mask="url(#path-1-outside-1)"/>
<path d="M214.227 12.6932C213.813 17.1228 213.451 21.5214 213.14 25.889C212.83 30.2565 212.561 34.6448 212.333 39.0537C215.086 35.2037 217.467 31.0224 219.474 26.5099C221.503 21.9975 223.169 17.2781 224.473 12.3516L231.739 12.8795C230.248 16.5432 228.644 20.0725 226.926 23.4672C225.208 26.8618 223.293 30.1737 221.182 33.4028L230.466 57.2484H223.449L218.512 37.2218C217.477 38.6501 216.432 40.0473 215.376 41.4134C214.32 42.7796 213.223 44.1354 212.085 45.4809C211.981 47.4887 211.909 49.5069 211.867 51.5354C211.826 53.5432 211.785 55.5511 211.743 57.5589H206.465C206.506 54.868 206.537 52.1874 206.558 49.5172C206.599 46.847 206.62 44.1664 206.62 41.4755C206.62 36.6526 206.579 31.8711 206.496 27.1309C206.434 22.3701 206.341 17.5782 206.216 12.7553L214.227 12.6932Z" stroke="#A62D62" stroke-width="21.1961" mask="url(#path-1-outside-1)"/>
<path d="M257.634 12.8174V17.0711H240.588V36.0109H254.063V40.6062H240.401V51.8459H256.919V56.7516H235.123V12.8174H257.634Z" stroke="#A62D62" stroke-width="21.1961" mask="url(#path-1-outside-1)"/>
<path d="M319.856 56.5653H317.185L314.391 22.6599L309.237 53.4915H303.307L298.804 23.374L294.861 56.2238L289.831 55.9133L293.837 11.9169H302.561L306.691 43.649L311.193 11.7927H319.856V56.5653Z" stroke="#A62D62" stroke-width="21.1961" mask="url(#path-1-outside-1)"/>
<path d="M349.166 12.8174V17.0711H332.12V36.0109H345.595V40.6062H331.934V51.8459H348.452V56.7516H326.655V12.8174H349.166Z" stroke="#A62D62" stroke-width="21.1961" mask="url(#path-1-outside-1)"/>
</svg>
