<svg width="69" height="69" viewBox="0 0 69 69" fill="none" xmlns="http://www.w3.org/2000/svg">
<g filter="url(#filter0_d)">
<path d="M34.5 45C42.5081 45 49 38.5081 49 30.5C49 22.4919 42.5081 16 34.5 16C26.4919 16 20 22.4919 20 30.5C20 38.5081 26.4919 45 34.5 45Z" fill="white"/>
</g>
<path d="M40.387 37.3343V37.3355C40.1417 37.3355 39.9895 37.2594 39.7611 37.1252C36.1131 34.9261 31.8683 34.8342 27.6753 35.6934C27.447 35.7526 27.1485 35.8456 26.9793 35.8456C26.4114 35.8456 26.055 35.3949 26.055 34.9212C26.055 34.3183 26.4114 34.0319 26.8513 33.9389C31.6399 32.8816 36.5336 32.9746 40.7072 35.471C41.0637 35.6994 41.2751 35.9036 41.2751 36.4353C41.2751 36.9645 40.8595 37.3343 40.387 37.3343Z" fill="#212121"/>
<path d="M41.9615 33.5002H41.9603C41.6558 33.5002 41.4515 33.3661 41.2401 33.255C37.5849 31.092 32.1377 30.2196 27.2899 31.5355C27.0095 31.6116 26.8573 31.6877 26.5939 31.6877C25.968 31.6877 25.4605 31.179 25.4605 30.5543C25.4605 29.9296 25.765 29.514 26.3667 29.3448C27.9919 28.888 29.6522 28.5485 32.0845 28.5485C35.8787 28.5485 39.5448 29.4898 42.4339 31.2092C42.9076 31.4896 43.0949 31.8533 43.0949 32.3608C43.0888 32.9903 42.5983 33.5002 41.9615 33.5002Z" fill="#212121"/>
<path d="M25.4955 24.4559C27.5533 23.8529 29.8576 23.5678 32.3661 23.5678C36.6339 23.5678 41.1072 24.4559 44.3757 26.3627C44.8325 26.6261 45.1297 26.9886 45.1297 27.6834C45.1297 28.4784 44.4857 29.0452 43.774 29.0452L43.7728 29.0439C43.4683 29.0439 43.281 28.9678 43.0175 28.8156C38.856 26.3312 31.4115 25.7355 26.5951 27.0804C26.3836 27.1384 26.1202 27.2314 25.8399 27.2314C25.0678 27.2314 24.4781 26.6285 24.4781 25.8515C24.4781 25.0577 24.9699 24.6082 25.4955 24.4559Z" fill="#212121"/>
<defs>
<filter id="filter0_d" x="0" y="0" width="69" height="69" filterUnits="userSpaceOnUse" color-interpolation-filters="sRGB">
<feFlood flood-opacity="0" result="BackgroundImageFix"/>
<feColorMatrix in="SourceAlpha" type="matrix" values="0 0 0 0 0 0 0 0 0 0 0 0 0 0 0 0 0 0 127 0"/>
<feOffset dy="4"/>
<feGaussianBlur stdDeviation="10"/>
<feColorMatrix type="matrix" values="0 0 0 0 0.443137 0 0 0 0 0.917647 0 0 0 0 0.462745 0 0 0 0.3 0"/>
<feBlend mode="normal" in2="BackgroundImageFix" result="effect1_dropShadow"/>
<feBlend mode="normal" in="SourceGraphic" in2="effect1_dropShadow" result="shape"/>
</filter>
</defs>
</svg>
